<?xml version="1.0" encoding="UTF-8"?>
<svg width="9px" height="10px" viewBox="0 0 9 10" version="1.1" xmlns="http://www.w3.org/2000/svg" xmlns:xlink="http://www.w3.org/1999/xlink">
    <!-- Generator: Sketch 45.1 (43504) - http://www.bohemiancoding.com/sketch -->
    <title>Polygon 2</title>
    <desc>Created with Sketch.</desc>
    <defs></defs>
    <g id="Page-1" stroke="none" stroke-width="1" fill="none" fill-rule="evenodd">
        <g id="Artboard" transform="translate(-53.000000, -29.000000)" fill="#4C4C4C">
            <path d="M57.5045695,29.3191066 C58.7773509,29.3191066 59.755066,30.8067452 59.4044851,32.1539487 C60.6963658,31.6155131 61.5080976,32.2733502 61.7797543,33.1094235 C62.2266961,34.4849688 61.4349397,35.4742995 59.4044851,36.0774156 C58.7000838,35.8668238 58.2514888,35.9431545 58.0587001,36.3064078 C57.8659114,36.6696611 57.8659114,37.4385749 58.0587001,38.6131494 L56.8574031,38.6131494 C56.9720779,37.3242247 56.9720779,36.5553109 56.8574031,36.3064078 C56.7427282,36.0575047 56.3533064,35.981174 55.6891376,36.0774156 C53.6105613,35.430309 52.7875973,34.4409783 53.2202457,33.1094235 C53.5405928,32.1234965 54.6386107,31.6756996 55.6891376,32.1539487 C55.3501076,30.4887905 56.4209827,29.3191066 57.5045695,29.3191066 Z" id="Polygon-2"></path>
        </g>
    </g>
</svg>